HIERARCHY
ROOT joint_Root
{
	OFFSET 0.0 0.0 0.0
	CHANNELS 6 Xposition Yposition Zposition Zrotation Xrotation Yrotation 
	JOINT Hips
	{
		OFFSET 4.5925 91.4895 -427.239
		CHANNELS 6 Xposition Yposition Zposition Zrotation Xrotation Yrotation 
		JOINT Spine
		{
			OFFSET 15.7357 0.0 0.0
			CHANNELS 6 Xposition Yposition Zposition Zrotation Xrotation Yrotation 
			JOINT Chest
			{
				OFFSET 8.98455 -0.406207 0.0
				CHANNELS 6 Xposition Yposition Zposition Zrotation Xrotation Yrotation 
				JOINT Neck
				{
					OFFSET 16.3773 0.0 0.0
					CHANNELS 6 Xposition Yposition Zposition Zrotation Xrotation Yrotation 
					JOINT Head
					{
						OFFSET 6.45672 0.0 0.0
						CHANNELS 6 Xposition Yposition Zposition Zrotation Xrotation Yrotation 
						End Site
						{
							OFFSET 0.0 0.0 0.0
						}
					}
				}
				JOINT Shoulder_L
				{
					OFFSET 12.9942 -0.242716 4.98039
					CHANNELS 6 Xposition Yposition Zposition Zrotation Xrotation Yrotation 
					JOINT UpperArm_L
					{
						OFFSET 5.34809 0.0 0.0
						CHANNELS 6 Xposition Yposition Zposition Zrotation Xrotation Yrotation 
						JOINT LowerArm_L
						{
							OFFSET 24.3286 1.87007e-05 0.0
							CHANNELS 6 Xposition Yposition Zposition Zrotation Xrotation Yrotation 
							JOINT Hand_L
							{
								OFFSET 22.2916 0.0 0.0
								CHANNELS 6 Xposition Yposition Zposition Zrotation Xrotation Yrotation 
								End Site
								{
									OFFSET 0.0 0.0 0.0
								}
							}
						}
					}
				}
				JOINT Shoulder_R
				{
					OFFSET 12.9945 -0.242716 -4.98039
					CHANNELS 6 Xposition Yposition Zposition Zrotation Xrotation Yrotation 
					JOINT UpperArm_R
					{
						OFFSET -5.34813 0.0 0.0
						CHANNELS 6 Xposition Yposition Zposition Zrotation Xrotation Yrotation 
						JOINT LowerArm_R
						{
							OFFSET -24.3289 0.000322201 0.0
							CHANNELS 6 Xposition Yposition Zposition Zrotation Xrotation Yrotation 
							JOINT Hand_R
							{
								OFFSET -22.2915 -0.000108084 0.0
								CHANNELS 6 Xposition Yposition Zposition Zrotation Xrotation Yrotation 
								End Site
								{
									OFFSET 0.0 0.0 0.0
								}
							}
						}
					}
				}
			}
		}
		JOINT UpperLeg_L
		{
			OFFSET -2.19248 -6.46944 0.0
			CHANNELS 6 Xposition Yposition Zposition Zrotation Xrotation Yrotation 
			JOINT LowerLeg_L
			{
				OFFSET 39.0811 0.0 -1.23785e-05
				CHANNELS 6 Xposition Yposition Zposition Zrotation Xrotation Yrotation 
				JOINT Foot_L
				{
					OFFSET 40.9854 0.0 -1.26872e-05
					CHANNELS 6 Xposition Yposition Zposition Zrotation Xrotation Yrotation 
					JOINT Toes_L
					{
						OFFSET 11.7543 0.0 0.0
						CHANNELS 6 Xposition Yposition Zposition Zrotation Xrotation Yrotation 
						End Site
						{
							OFFSET 0.0 0.0 0.0
						}
					}
				}
			}
		}
		JOINT UpperLeg_R
		{
			OFFSET -2.19251 6.46944 0.0
			CHANNELS 6 Xposition Yposition Zposition Zrotation Xrotation Yrotation 
			JOINT LowerLeg_R
			{
				OFFSET -39.0811 -0.00228153 -0.0401928
				CHANNELS 6 Xposition Yposition Zposition Zrotation Xrotation Yrotation 
				JOINT Foot_R
				{
					OFFSET -40.9854 0.0 0.0
					CHANNELS 6 Xposition Yposition Zposition Zrotation Xrotation Yrotation 
					JOINT Toes_R
					{
						OFFSET -11.7543 0.0 0.0
						CHANNELS 6 Xposition Yposition Zposition Zrotation Xrotation Yrotation 
						End Site
						{
							OFFSET 0.0 0.0 0.0
						}
					}
				}
			}
		}
	}
}
MOTION
Frames:	7
Frame Time:	0.0333333
0.000000 0.000000 0.000000 0.000000 0.000000 -0.000000 -0.854214 90.432500 3.387240 89.513000 -8.392020 11.177900 15.735700 0.000005 -0.000001 74.196300 83.796500 -73.082300 8.984550 -0.406207 -0.000000 4.212310 -3.408240 2.351370 16.377300 -0.000001 -0.000001 24.971100 -13.354000 1.702590 6.456720 -0.000001 -0.000000 19.981000 -17.618600 8.384320 12.994200 -0.242716 4.980390 -86.420100 -9.087880 -68.391800 5.348090 -0.000007 -0.000001 -46.837800 -44.168500 -92.560000 24.328600 0.000019 0.000005 11.811400 18.141600 -33.885700 22.291600 -0.000001 0.000005 9.905030 5.300620 0.054766 12.994500 -0.242716 -4.980390 88.657200 8.687970 -81.179300 -5.348130 -0.000001 -0.000004 -65.508500 31.380800 -6.800750 -24.328900 0.000322 -0.000009 1.145890 3.412270 -18.591200 -22.291500 -0.000108 -0.000004 13.035300 5.412160 -3.337080 -2.192480 -6.469440 -0.000000 -172.798000 -16.001500 5.214370 39.081100 -0.000007 -0.000012 -0.224498 0.389126 29.982200 40.985400 -0.000006 -0.000013 -0.888454 3.662310 -73.021900 11.754300 -0.000000 0.000003 -0.000200 -0.001848 -16.647300 -2.192510 6.469440 -0.000001 173.175000 17.391000 -175.279000 -39.081100 -0.002282 -0.040193 -0.236788 0.416276 29.974800 -40.985400 0.000008 0.000006 4.219630 16.636300 -73.425200 -11.754300 -0.000006 -0.000006 -0.001316 -0.019799 -17.378200
0.000000 0.000000 0.000000 0.000000 0.000000 -0.000000 -0.898710 90.408400 3.462940 89.549500 -8.108240 11.242700 15.735700 0.000005 -0.000001 74.408100 83.773200 -73.319900 8.984550 -0.406207 -0.000000 4.268430 -3.375220 2.300280 16.377300 -0.000001 -0.000001 25.115200 -13.308000 1.824810 6.456720 -0.000001 -0.000000 19.845300 -17.620500 8.111900 12.994200 -0.242716 4.980390 -86.447400 -8.968990 -68.285800 5.348090 -0.000007 -0.000001 -46.725100 -44.153900 -92.424900 24.328600 0.000019 0.000005 11.924200 18.062700 -34.257800 22.291600 -0.000001 0.000005 9.648410 5.300570 0.056330 12.994500 -0.242716 -4.980390 88.643000 8.724750 -81.124000 -5.348130 -0.000001 -0.000004 -65.496800 31.507700 -6.753680 -24.328900 0.000322 -0.000009 1.199270 3.562620 -18.633400 -22.291500 -0.000108 -0.000004 12.986200 5.412890 -3.361190 -2.192480 -6.469440 -0.000000 -172.814000 -15.808200 5.251450 39.081100 -0.000007 -0.000012 -0.226088 0.390810 30.050200 40.985400 -0.000006 -0.000013 -0.899386 3.740840 -73.079900 11.754300 -0.000000 0.000003 -0.000210 -0.001927 -16.650200 -2.192510 6.469440 -0.000001 173.104000 17.490800 -175.136000 -39.081100 -0.002282 -0.040193 -0.240334 0.421380 30.036200 -40.985400 0.000008 0.000006 4.204010 16.472700 -73.542900 -11.754300 -0.000006 -0.000006 -0.001339 -0.020107 -17.390800
0.000000 0.000000 0.000000 0.000000 0.000000 -0.000000 -0.940522 90.396900 3.542430 89.587800 -7.847160 11.279200 15.735700 0.000005 -0.000001 74.533100 83.752200 -73.478400 8.984550 -0.406207 -0.000000 4.314870 -3.358710 2.233950 16.377300 -0.000001 -0.000001 25.159700 -13.312200 1.841440 6.456720 -0.000001 -0.000000 19.856200 -17.558100 8.006180 12.994200 -0.242716 4.980390 -86.480900 -8.823390 -68.153100 5.348090 -0.000007 -0.000001 -46.590300 -44.134600 -92.388900 24.328600 0.000019 0.000005 11.946500 17.995700 -34.405000 22.291600 -0.000001 0.000005 9.753420 5.301480 0.031265 12.994500 -0.242716 -4.980390 88.618000 8.792100 -81.030600 -5.348130 -0.000001 -0.000004 -65.448300 31.618000 -6.694790 -24.328900 0.000322 -0.000009 1.196190 3.552420 -18.638600 -22.291500 -0.000108 -0.000004 12.973900 5.413510 -3.381670 -2.192480 -6.469440 -0.000000 -172.843000 -15.616200 5.298990 39.081100 -0.000007 -0.000012 -0.228582 0.395199 30.045300 40.985400 -0.000006 -0.000013 -0.912540 3.811500 -73.105300 11.754300 -0.000000 0.000003 -0.000197 -0.001828 -16.646500 -2.192510 6.469440 -0.000001 173.024000 17.625600 -175.001000 -39.081100 -0.002282 -0.040193 -0.243046 0.426004 30.040100 -40.985400 0.000008 0.000006 4.201360 16.390000 -73.626200 -11.754300 -0.000006 -0.000006 -0.001275 -0.019240 -17.355500
0.000000 0.000000 0.000000 0.000000 0.000000 -0.000000 -0.984214 90.379900 3.612280 89.591900 -7.673340 11.291600 15.735700 0.000005 -0.000001 74.750700 83.745700 -73.708200 8.984550 -0.406207 -0.000000 4.339080 -3.315810 2.208630 16.377300 -0.000001 -0.000001 25.234500 -13.291700 1.939130 6.456720 -0.000001 -0.000000 19.802600 -17.572000 7.789840 12.994200 -0.242716 4.980390 -86.519500 -8.690080 -68.072700 5.348090 -0.000007 -0.000001 -46.551600 -44.133800 -92.377500 24.328600 0.000019 0.000005 11.987900 17.954000 -34.560400 22.291600 -0.000001 0.000005 9.657300 5.300700 0.052859 12.994500 -0.242716 -4.980390 88.607300 8.811310 -80.981300 -5.348130 -0.000001 -0.000004 -65.401800 31.646300 -6.627750 -24.328900 0.000322 -0.000009 1.209810 3.606100 -18.575100 -22.291500 -0.000108 -0.000004 12.980600 5.411000 -3.298260 -2.192480 -6.469440 -0.000000 -172.826000 -15.491900 5.329300 39.081100 -0.000007 -0.000012 -0.229222 0.395783 30.078100 40.985400 -0.000006 -0.000013 -0.926135 3.884330 -73.162000 11.754300 -0.000000 0.000003 -0.000208 -0.001916 -16.649700 -2.192510 6.469440 -0.000001 173.027000 17.684500 -174.919000 -39.081100 -0.002282 -0.040193 -0.239065 0.418673 30.066600 -40.985400 0.000008 0.000006 4.193030 16.251700 -73.707900 -11.754300 -0.000006 -0.000006 -0.001144 -0.017427 -17.281800
0.000000 0.000000 0.000000 0.000000 0.000000 -0.000000 -1.022880 90.365700 3.681720 89.598100 -7.515700 11.320800 15.735700 0.000005 -0.000001 74.890800 83.725500 -73.870300 8.984550 -0.406207 -0.000000 4.385210 -3.295680 2.165440 16.377300 -0.000001 -0.000001 25.448700 -13.286500 2.050480 6.456720 -0.000001 -0.000000 19.627800 -17.568800 7.672230 12.994200 -0.242716 4.980390 -86.539600 -8.591700 -67.963600 5.348090 -0.000007 -0.000001 -46.729300 -44.130800 -92.566100 24.328600 0.000019 0.000005 12.206200 18.190600 -34.719500 22.291600 -0.000001 0.000005 9.529960 5.298410 0.116798 12.994500 -0.242716 -4.980390 88.590800 8.836580 -80.901700 -5.348130 -0.000001 -0.000004 -65.296800 31.690800 -6.632950 -24.328900 0.000322 -0.000009 1.212440 3.643490 -18.434800 -22.291500 -0.000108 -0.000004 12.887700 5.409410 -3.245690 -2.192480 -6.469440 -0.000000 -172.816000 -15.359500 5.366620 39.081100 -0.000007 -0.000012 -0.231836 0.399837 30.106600 40.985400 -0.000006 -0.000013 -0.945559 3.920300 -73.206100 11.754300 -0.000000 0.000003 -0.000203 -0.001876 -16.648300 -2.192510 6.469440 -0.000001 172.994000 17.767900 -174.803000 -39.081100 -0.002282 -0.040193 -0.239081 0.418600 30.072600 -40.985400 0.000008 0.000006 4.203960 16.208000 -73.788700 -11.754300 -0.000006 -0.000006 -0.001324 -0.019902 -17.382400
0.000000 0.000000 0.000000 0.000000 0.000000 -0.000000 -1.061620 90.351800 3.754070 89.605000 -7.412050 11.332300 15.735700 0.000005 -0.000001 74.949400 83.716300 -73.957700 8.984550 -0.406207 -0.000000 4.405390 -3.287030 2.108240 16.377300 -0.000001 -0.000001 25.630500 -13.304700 2.122720 6.456720 -0.000001 -0.000000 19.654100 -17.550600 7.587240 12.994200 -0.242716 4.980390 -86.558200 -8.515250 -67.894100 5.348090 -0.000007 -0.000001 -46.775400 -44.167700 -92.634800 24.328600 0.000019 0.000005 12.175200 18.094500 -34.786400 22.291600 -0.000001 0.000005 9.565930 5.298210 0.122557 12.994500 -0.242716 -4.980390 88.575000 8.861060 -80.826500 -5.348130 -0.000001 -0.000004 -65.270800 31.521600 -6.633180 -24.328900 0.000322 -0.000009 1.273000 3.887600 -18.160900 -22.291500 -0.000108 -0.000004 12.926100 5.411070 -3.300530 -2.192480 -6.469440 -0.000000 -172.808000 -15.254400 5.406970 39.081100 -0.000007 -0.000012 -0.230936 0.398048 30.121400 40.985400 -0.000006 -0.000013 -0.968458 3.948740 -73.254400 11.754300 -0.000000 0.000003 -0.000211 -0.001934 -16.650400 -2.192510 6.469440 -0.000001 172.974000 17.825400 -174.722000 -39.081100 -0.002282 -0.040193 -0.241005 0.421695 30.086000 -40.985400 0.000008 0.000006 4.205370 16.141600 -73.860700 -11.754300 -0.000006 -0.000006 -0.001195 -0.018135 -17.310600
0.000000 0.000000 0.000000 0.000000 0.000000 -0.000000 -1.087750 90.335800 3.824910 89.610800 -7.358420 11.342000 15.735700 0.000005 -0.000001 74.851700 83.707900 -73.883400 8.984550 -0.406207 -0.000000 4.415590 -3.311290 2.062360 16.377300 -0.000001 -0.000001 25.758800 -13.336600 2.152870 6.456720 -0.000001 -0.000000 19.868600 -17.518900 7.406070 12.994200 -0.242716 4.980390 -86.581000 -8.445040 -67.863400 5.348090 -0.000007 -0.000001 -46.725000 -44.255100 -92.542300 24.328600 0.000019 0.000005 12.211400 18.038400 -34.949400 22.291600 -0.000001 0.000005 9.604880 5.297120 0.153214 12.994500 -0.242716 -4.980390 88.556900 8.896710 -80.747900 -5.348130 -0.000001 -0.000004 -65.129800 31.546900 -6.690810 -24.328900 0.000322 -0.000009 1.279750 3.953140 -17.968300 -22.291500 -0.000108 -0.000004 13.033900 5.408490 -3.215630 -2.192480 -6.469440 -0.000000 -172.789000 -15.209200 5.441020 39.081100 -0.000007 -0.000012 -0.234447 0.403587 30.153000 40.985400 -0.000006 -0.000013 -0.991391 3.958680 -73.308100 11.754300 -0.000000 0.000003 -0.000216 -0.001972 -16.651800 -2.192510 6.469440 -0.000001 172.962000 17.851000 -174.664000 -39.081100 -0.002282 -0.040193 -0.243458 0.425390 30.117500 -40.985400 0.000008 0.000006 4.213840 16.093000 -73.936100 -11.754300 -0.000006 -0.000006 -0.001239 -0.018747 -17.335500
